<svg width="47" height="52" fill="none" xmlns="http://www.w3.org/2000/svg"><path d="m5 27.4 2 1.2v-5.2l-2 1.2v2.8ZM12 20.5l-2 1.2v8.6l2 1.2v-11ZM17 17.602l-2 1.2v14.4l2 1.2v-16.8ZM22 14.701l-2 1.2v20.2l2 1.2v-22.6ZM27 11.9 25 13v26l2 1.1V11.9ZM32 9l-2 1.1v31.8l2 1.1V9ZM37 6.102l-2 1.1v37.6l2 1.1v-39.8ZM42 3.201l-2 1.1v43.4l2 1.1v-45.6ZM45 50.5l2 1.2V.3l-2 1.2v49Z" fill="#54ECE6"/><g opacity=".6"><path d="M36 44H19.8v-4H36c2.2 0 4-1.8 4-4v-6.1c-12 4.8-25.9 4.6-37.7-.7l-2.3-1V12h44v24c0 4.4-3.6 8-8 8ZM4 25.6c11.3 5.1 24.7 5 36-.1V16H4v9.6Z" fill="#0030FB"/><path d="M19.8 44H8c-4.4 0-8-3.6-8-8v-3.1h4V36c0 2.2 1.8 4 4 4h11.8v4Z" fill="url(#a)"/><path d="M34 14h-4V9c0-.6-.4-1-1-1H16c-.6 0-1 .4-1 1v5h-4V9c0-2.8 2.2-5 5-5h13c2.8 0 5 2.2 5 5v5Z" fill="#0030FB"/></g><defs><linearGradient id="a" x1=".324" y1="32.462" x2="18.025" y2="46.291" gradientUnits="userSpaceOnUse"><stop offset=".05" stop-color="#0030FB" stop-opacity="0"/><stop offset=".6" stop-color="#0030FB"/></linearGradient></defs></svg>