<svg width="22" height="22" viewBox="0 0 22 22" fill="none" xmlns="http://www.w3.org/2000/svg">
<path d="M11.162 4.34961C7.77557 4.34961 5.02051 6.96828 5.02051 10.187C5.02051 11.5059 5.47502 12.7513 6.33499 13.7883C6.49977 13.9871 6.67725 14.1828 6.8488 14.3721C7.36113 14.9372 7.84493 15.4709 8.01713 16.0713C8.02085 16.0842 8.05326 16.2102 8.04847 16.6394L8.04765 16.7014C8.04245 17.0497 8.03553 17.5267 8.40658 17.8844C8.66068 18.1293 9.01681 18.2485 9.49557 18.2485H12.817C13.3339 18.2485 13.7056 18.1283 13.9531 17.8809C14.2881 17.5464 14.2656 17.1143 14.2507 16.8284C14.2481 16.7778 14.2453 16.7268 14.2446 16.676C14.2393 16.2464 14.2731 16.1253 14.2745 16.1202C14.4494 15.5199 15.0162 14.8869 15.5163 14.3285C15.6831 14.1422 15.8407 13.9662 15.9875 13.7893C16.8478 12.7522 17.3025 11.5065 17.3025 10.1871C17.3026 6.96836 14.548 4.34961 11.162 4.34961ZM15.0162 13.0611C14.8836 13.2207 14.7334 13.3886 14.5743 13.5663C13.9912 14.2175 13.3302 14.9556 13.0824 15.8061C13.047 15.9273 13.0009 16.1507 13.0077 16.6898C13.0086 16.7553 13.0118 16.8212 13.0153 16.8864C13.0179 16.9379 13.0214 17.0058 13.0211 17.0595C12.9776 17.0663 12.9118 17.0726 12.817 17.0726H9.49557C9.39033 17.0726 9.32881 17.062 9.29722 17.054C9.28089 16.9774 9.2832 16.8183 9.28468 16.7179L9.28567 16.6517C9.29161 16.1094 9.24584 15.8844 9.21087 15.7622C8.9651 14.9049 8.3387 14.214 7.78612 13.6045C7.61573 13.4165 7.45466 13.2389 7.3067 13.0603C6.62051 12.2327 6.25779 11.2391 6.25779 10.187C6.25779 7.61658 8.45788 5.5254 11.1621 5.5254C13.8659 5.5254 16.0657 7.61658 16.0657 10.187C16.0655 11.2397 15.7027 12.2336 15.0162 13.0611Z" fill="#3F63F7"/>
<path d="M12.6898 18.7798H9.63484C8.97546 18.7798 8.43896 19.2897 8.43896 19.9165V20.788C8.43896 21.4147 8.97546 21.9247 9.63484 21.9247H12.6898C13.3492 21.9247 13.8856 21.4147 13.8856 20.788V19.9165C13.8856 19.2897 13.3492 18.7798 12.6898 18.7798ZM12.6485 20.7488H9.67608V19.9557H12.6485V20.7488Z" fill="#3F63F7"/>
<path d="M11.1615 3.58871C11.5032 3.58871 11.7801 3.32555 11.7801 3.00077V0.587941C11.7801 0.263162 11.5032 0 11.1615 0C10.8198 0 10.543 0.263162 10.543 0.587941V3.00077C10.543 3.32555 10.8199 3.58871 11.1615 3.58871Z" fill="#3F63F7"/>
<path d="M19.3 2.71222C19.0642 2.47743 18.6727 2.46873 18.4254 2.69277L16.5475 4.39623C16.3003 4.62035 16.2912 4.99255 16.527 5.22749C16.6486 5.34853 16.8114 5.40952 16.9746 5.40952C17.128 5.40952 17.2818 5.35558 17.4016 5.24693L19.2795 3.5434C19.5267 3.31928 19.5358 2.94708 19.3 2.71222Z" fill="#3F63F7"/>
<path d="M21.1439 8.5918C21.1435 8.5918 21.1432 8.5918 21.1429 8.5918L18.7255 8.59548C18.3838 8.59603 18.1073 8.85966 18.1079 9.18435C18.1085 9.5088 18.3853 9.77133 18.7265 9.77133C18.7268 9.77133 18.7271 9.77133 18.7275 9.77133L21.1449 9.76765C21.4865 9.7671 21.763 9.50347 21.7624 9.17878C21.7619 8.85432 21.4851 8.5918 21.1439 8.5918Z" fill="#3F63F7"/>
<path d="M5.48308 5.07085C5.71887 4.83599 5.7098 4.46386 5.46263 4.23957L3.58468 2.5361C3.33775 2.31205 2.94616 2.32059 2.71012 2.55554C2.47432 2.7904 2.4834 3.16253 2.73057 3.38682L4.60852 5.09037C4.72827 5.19903 4.88192 5.25296 5.03549 5.25296C5.19862 5.25288 5.36151 5.19189 5.48308 5.07085Z" fill="#3F63F7"/>
<path d="M3.03687 8.59548L0.619548 8.5918C0.619218 8.5918 0.618888 8.5918 0.618558 8.5918C0.277362 8.5918 0.000578222 8.85448 9.02302e-07 9.17878C-0.000576418 9.50347 0.27596 9.7671 0.617568 9.76765L3.03489 9.77133C3.03522 9.77133 3.03555 9.77133 3.03588 9.77133C3.37708 9.77133 3.65386 9.50865 3.65444 9.18435C3.6551 8.85966 3.37856 8.59595 3.03687 8.59548Z" fill="#3F63F7"/>
</svg>
