<?xml version="1.0" encoding="utf-8"?>
<!-- Generator: Adobe Illustrator 25.0.0, SVG Export Plug-In . SVG Version: 6.00 Build 0)  -->
<svg version="1.1" id="Layer_1" xmlns="http://www.w3.org/2000/svg" xmlns:xlink="http://www.w3.org/1999/xlink" x="0px" y="0px"
	 viewBox="0 0 26 26" style="enable-background:new 0 0 26 26;" xml:space="preserve">
<style type="text/css">
	.st0{fill:#3F63F7;}
</style>
<path class="st0" d="M2,11h22c1.1,0,2,0.9,2,2l0,0c0,1.1-0.9,2-2,2H2c-1.1,0-2-0.9-2-2l0,0C0,11.9,0.9,11,2,11z"/>
<path class="st0" d="M11,24V2c0-1.1,0.9-2,2-2l0,0c1.1,0,2,0.9,2,2v22c0,1.1-0.9,2-2,2l0,0C11.9,26,11,25.1,11,24z"/>
</svg>
