<svg width="36" height="32" viewBox="0 0 36 32" fill="none" xmlns="http://www.w3.org/2000/svg">
<path d="M2.57022 17.42C2.828 17.42 3.05058 17.5064 3.20896 17.6648C3.36734 17.8232 3.45369 18.0457 3.45369 18.3035V28.4889C3.45369 28.7012 3.52403 28.8704 3.63987 28.9862C3.7557 29.102 3.92486 29.1724 4.13716 29.1724H32.343C32.5553 29.1724 32.7244 29.102 32.8403 28.9862C32.9561 28.8704 33.0264 28.7012 33.0264 28.4889V18.3035C33.0264 18.0457 33.1128 17.8231 33.2712 17.6647C33.4296 17.5064 33.6521 17.42 33.9099 17.42C34.1676 17.42 34.3902 17.5064 34.5486 17.6648C34.707 17.8232 34.7934 18.0457 34.7934 18.3035V28.4889C34.7934 29.8761 33.7301 30.9394 32.3429 30.9394H4.13716C2.74998 30.9394 1.68669 29.8761 1.68669 28.4889V18.3035C1.68669 18.0457 1.77306 17.8231 1.93146 17.6647C2.08986 17.5064 2.31245 17.42 2.57022 17.42Z" fill="#3F63F7" stroke="#3F63F7" stroke-width="0.2"/>
<path d="M33.695 16.2852L33.6943 16.2853L21.4717 19.0101V21.4371C21.4717 21.6949 21.3853 21.9174 21.2269 22.0758C21.0686 22.2342 20.846 22.3205 20.5882 22.3205H15.8873C15.6295 22.3205 15.4069 22.2342 15.2486 22.0758C15.0902 21.9174 15.0038 21.6948 15.0038 21.4371V19.0101L2.78123 16.2853L2.78051 16.2852C1.71749 16.0399 0.900932 15.06 0.900932 13.9156V8.90119C0.900932 7.51407 1.96423 6.45078 3.3514 6.45078H33.1241C34.5113 6.45078 35.5746 7.51407 35.5746 8.90125V13.9156C35.5746 15.06 34.758 16.0399 33.695 16.2852ZM3.21433 14.6009L3.21655 14.6014L15.0038 17.2381V16.7361C15.0038 16.4784 15.0902 16.2558 15.2486 16.0974C15.407 15.939 15.6296 15.8527 15.8873 15.8527H20.5882C20.846 15.8527 21.0686 15.939 21.227 16.0974C21.3854 16.2558 21.4717 16.4784 21.4717 16.7361V17.2381L33.259 14.6015L33.259 14.6015L33.2612 14.601C33.6027 14.5327 33.8076 14.2633 33.8076 13.9156V8.90125C33.8076 8.68893 33.7373 8.51977 33.6214 8.40394C33.5056 8.28811 33.3364 8.21778 33.1241 8.21778H3.3514C3.13908 8.21778 2.96992 8.28813 2.85409 8.40396C2.73827 8.5198 2.66793 8.68896 2.66793 8.90125V13.9156C2.66793 14.2632 2.87281 14.5327 3.21433 14.6009ZM16.7708 20.5536H19.7047V17.6197H16.7708V20.5536Z" fill="#3F63F7" stroke="#3F63F7" stroke-width="0.2"/>
<path d="M14.3204 0.916406H22.1554C23.5702 0.916406 24.6559 2.00209 24.6559 3.41688V4.20035C24.6559 4.46949 24.5655 4.70542 24.3965 4.87444C24.2274 5.04346 23.9915 5.13381 23.7224 5.13381C23.4533 5.13381 23.2173 5.04344 23.0483 4.87441C22.8793 4.70539 22.7889 4.46946 22.7889 4.20035V3.41688C22.7889 3.21592 22.7226 3.06011 22.6174 2.95492C22.5122 2.84973 22.3564 2.78341 22.1555 2.78341H14.3205C14.1195 2.78341 13.9637 2.84975 13.8585 2.95494C13.7534 3.06014 13.687 3.21594 13.687 3.41688V4.20035C13.687 4.46949 13.5967 4.70542 13.4276 4.87444C13.2586 5.04346 13.0227 5.13381 12.7536 5.13381C12.4844 5.13381 12.2485 5.04344 12.0795 4.87441C11.9105 4.70538 11.8201 4.46945 11.8201 4.20035V3.41689C11.8201 3.41689 11.8201 3.41688 11.8201 3.41688C11.82 2.00208 12.9057 0.916406 14.3204 0.916406Z" fill="#3F63F7" stroke="#3F63F7" stroke-width="0.3"/>
</svg>
