<svg width="37" height="37" viewBox="0 0 37 37" fill="none" xmlns="http://www.w3.org/2000/svg">
<path d="M30.7363 27.6352H30.0777V21.0977C30.0777 20.7064 29.7604 20.3891 29.3691 20.3891H21.166C20.7747 20.3891 20.4574 20.7064 20.4574 21.0977V27.6352H19.7988C19.4075 27.6352 19.0902 27.9525 19.0902 28.3438C19.0902 28.735 19.4075 29.0523 19.7988 29.0523H30.7363C31.1276 29.0523 31.4449 28.735 31.4449 28.3438C31.4449 27.9525 31.1276 27.6352 30.7363 27.6352ZM28.6605 27.6352H21.8746V21.8062H28.6605V27.6352Z" fill="#3B5CE5" stroke="#3B5CE5" stroke-width="0.05"/>
<mask id="path-2-outside-1" maskUnits="userSpaceOnUse" x="0" y="0" width="37" height="37" fill="black">
<rect fill="white" width="37" height="37"/>
<path d="M31.4883 4.24242V3.05078C31.4883 1.91998 30.5683 1 29.4375 1H7.5625C6.4317 1 5.51172 1.91998 5.51172 3.05078V4.24242C1.05284 12.4773 1.00021 12.2327 1 12.6203C1 12.6206 1 12.6208 1 12.6211V13.9883C1 15.1732 1.6851 16.2751 2.77734 16.9018V35.3164C2.77734 35.6939 3.08346 36 3.46094 36H33.5391C33.9165 36 34.2227 35.6939 34.2227 35.3164V16.9018C35.3039 16.2757 36 15.1607 36 13.9883V12.6211C36 12.6208 36 12.6206 36 12.6203C35.9998 12.2286 35.9037 12.3969 31.4883 4.24242ZM34.1603 11.9375H29.9302L27.6516 5.10156H30.4005L34.1603 11.9375ZM24.6523 13.3047H28.7539V13.9883C28.7539 15.1191 27.8339 16.0391 26.7031 16.0391C25.5723 16.0391 24.6523 15.1191 24.6523 13.9883V13.3047ZM24.5478 11.9375L23.4085 5.10156H26.2104L28.489 11.9375H24.5478ZM6.87891 3.05078C6.87891 2.67385 7.18557 2.36719 7.5625 2.36719H29.4375C29.8144 2.36719 30.1211 2.67385 30.1211 3.05078V3.73438C29.4702 3.73438 7.53488 3.73438 6.87891 3.73438V3.05078ZM23.2852 13.3047V13.9883C23.2852 15.1191 22.3652 16.0391 21.2344 16.0391C20.1036 16.0391 19.1836 15.1191 19.1836 13.9883V13.3047H23.2852ZM19.1836 11.9375V5.10156H22.0225L23.1618 11.9375H19.1836ZM13.8382 11.9375L14.9776 5.10156H17.8164V11.9375H13.8382ZM17.8164 13.3047V13.9883C17.8164 15.1191 16.8964 16.0391 15.7656 16.0391C14.6348 16.0391 13.7148 15.1191 13.7148 13.9883V13.3047H17.8164ZM8.51092 11.9375L10.7895 5.10156H13.5915L12.4521 11.9375H8.51092ZM12.3477 13.3047V13.9883C12.3477 15.1191 11.4277 16.0391 10.2969 16.0391C9.16607 16.0391 8.24609 15.1191 8.24609 13.9883V13.3047H12.3477ZM6.59945 5.10156H9.34839L7.06977 11.9375H2.83969L6.59945 5.10156ZM2.36719 13.9883V13.3047H6.87891V13.9883C6.87891 15.0616 5.80368 16.0391 4.62305 16.0391C4.32541 16.0391 4.01697 15.9745 3.72986 15.8516C2.91481 15.505 2.36719 14.7561 2.36719 13.9883ZM15.082 34.6328H8.24609V28.7539H15.082V34.6328ZM15.082 27.3867H8.24609V21.5078H15.082V27.3867ZM32.8555 34.6328H16.4492V20.8242C16.4492 20.4467 16.1431 20.1406 15.7656 20.1406H7.5625C7.18502 20.1406 6.87891 20.4467 6.87891 20.8242V34.6328H4.14453V17.3728C4.30299 17.3944 4.46261 17.4062 4.62305 17.4062C5.52272 17.4062 6.43218 17.0498 7.11803 16.4283C7.26972 16.2909 7.4063 16.1439 7.52887 15.9899C8.15053 16.8472 9.15938 17.4062 10.2969 17.4062C11.4138 17.4062 12.4071 16.8677 13.0312 16.0367C13.6554 16.8677 14.6487 17.4062 15.7656 17.4062C16.8825 17.4062 17.8759 16.8677 18.5 16.0367C19.1241 16.8677 20.1175 17.4062 21.2344 17.4062C22.3513 17.4062 23.3446 16.8677 23.9688 16.0367C24.5929 16.8677 25.5862 17.4062 26.7031 17.4062C27.8406 17.4062 28.8495 16.8472 29.4711 15.9899C29.5937 16.1439 29.7303 16.2908 29.882 16.4283C30.5678 17.0498 31.4773 17.4062 32.377 17.4062C32.5371 17.4062 32.6967 17.3948 32.8555 17.3731V34.6328ZM34.6328 13.9883C34.6328 14.7777 34.0648 15.5352 33.2196 15.8733C32.9431 15.9833 32.6597 16.0391 32.377 16.0391C31.1963 16.0391 30.1211 15.0616 30.1211 13.9883V13.3047H34.6328V13.9883Z"/>
</mask>
<path d="M31.4883 4.24242V3.05078C31.4883 1.91998 30.5683 1 29.4375 1H7.5625C6.4317 1 5.51172 1.91998 5.51172 3.05078V4.24242C1.05284 12.4773 1.00021 12.2327 1 12.6203C1 12.6206 1 12.6208 1 12.6211V13.9883C1 15.1732 1.6851 16.2751 2.77734 16.9018V35.3164C2.77734 35.6939 3.08346 36 3.46094 36H33.5391C33.9165 36 34.2227 35.6939 34.2227 35.3164V16.9018C35.3039 16.2757 36 15.1607 36 13.9883V12.6211C36 12.6208 36 12.6206 36 12.6203C35.9998 12.2286 35.9037 12.3969 31.4883 4.24242ZM34.1603 11.9375H29.9302L27.6516 5.10156H30.4005L34.1603 11.9375ZM24.6523 13.3047H28.7539V13.9883C28.7539 15.1191 27.8339 16.0391 26.7031 16.0391C25.5723 16.0391 24.6523 15.1191 24.6523 13.9883V13.3047ZM24.5478 11.9375L23.4085 5.10156H26.2104L28.489 11.9375H24.5478ZM6.87891 3.05078C6.87891 2.67385 7.18557 2.36719 7.5625 2.36719H29.4375C29.8144 2.36719 30.1211 2.67385 30.1211 3.05078V3.73438C29.4702 3.73438 7.53488 3.73438 6.87891 3.73438V3.05078ZM23.2852 13.3047V13.9883C23.2852 15.1191 22.3652 16.0391 21.2344 16.0391C20.1036 16.0391 19.1836 15.1191 19.1836 13.9883V13.3047H23.2852ZM19.1836 11.9375V5.10156H22.0225L23.1618 11.9375H19.1836ZM13.8382 11.9375L14.9776 5.10156H17.8164V11.9375H13.8382ZM17.8164 13.3047V13.9883C17.8164 15.1191 16.8964 16.0391 15.7656 16.0391C14.6348 16.0391 13.7148 15.1191 13.7148 13.9883V13.3047H17.8164ZM8.51092 11.9375L10.7895 5.10156H13.5915L12.4521 11.9375H8.51092ZM12.3477 13.3047V13.9883C12.3477 15.1191 11.4277 16.0391 10.2969 16.0391C9.16607 16.0391 8.24609 15.1191 8.24609 13.9883V13.3047H12.3477ZM6.59945 5.10156H9.34839L7.06977 11.9375H2.83969L6.59945 5.10156ZM2.36719 13.9883V13.3047H6.87891V13.9883C6.87891 15.0616 5.80368 16.0391 4.62305 16.0391C4.32541 16.0391 4.01697 15.9745 3.72986 15.8516C2.91481 15.505 2.36719 14.7561 2.36719 13.9883ZM15.082 34.6328H8.24609V28.7539H15.082V34.6328ZM15.082 27.3867H8.24609V21.5078H15.082V27.3867ZM32.8555 34.6328H16.4492V20.8242C16.4492 20.4467 16.1431 20.1406 15.7656 20.1406H7.5625C7.18502 20.1406 6.87891 20.4467 6.87891 20.8242V34.6328H4.14453V17.3728C4.30299 17.3944 4.46261 17.4062 4.62305 17.4062C5.52272 17.4062 6.43218 17.0498 7.11803 16.4283C7.26972 16.2909 7.4063 16.1439 7.52887 15.9899C8.15053 16.8472 9.15938 17.4062 10.2969 17.4062C11.4138 17.4062 12.4071 16.8677 13.0312 16.0367C13.6554 16.8677 14.6487 17.4062 15.7656 17.4062C16.8825 17.4062 17.8759 16.8677 18.5 16.0367C19.1241 16.8677 20.1175 17.4062 21.2344 17.4062C22.3513 17.4062 23.3446 16.8677 23.9688 16.0367C24.5929 16.8677 25.5862 17.4062 26.7031 17.4062C27.8406 17.4062 28.8495 16.8472 29.4711 15.9899C29.5937 16.1439 29.7303 16.2908 29.882 16.4283C30.5678 17.0498 31.4773 17.4062 32.377 17.4062C32.5371 17.4062 32.6967 17.3948 32.8555 17.3731V34.6328ZM34.6328 13.9883C34.6328 14.7777 34.0648 15.5352 33.2196 15.8733C32.9431 15.9833 32.6597 16.0391 32.377 16.0391C31.1963 16.0391 30.1211 15.0616 30.1211 13.9883V13.3047H34.6328V13.9883Z" fill="#3B5CE5"/>
<path d="M31.4883 4.24242V3.05078C31.4883 1.91998 30.5683 1 29.4375 1H7.5625C6.4317 1 5.51172 1.91998 5.51172 3.05078V4.24242C1.05284 12.4773 1.00021 12.2327 1 12.6203C1 12.6206 1 12.6208 1 12.6211V13.9883C1 15.1732 1.6851 16.2751 2.77734 16.9018V35.3164C2.77734 35.6939 3.08346 36 3.46094 36H33.5391C33.9165 36 34.2227 35.6939 34.2227 35.3164V16.9018C35.3039 16.2757 36 15.1607 36 13.9883V12.6211C36 12.6208 36 12.6206 36 12.6203C35.9998 12.2286 35.9037 12.3969 31.4883 4.24242ZM34.1603 11.9375H29.9302L27.6516 5.10156H30.4005L34.1603 11.9375ZM24.6523 13.3047H28.7539V13.9883C28.7539 15.1191 27.8339 16.0391 26.7031 16.0391C25.5723 16.0391 24.6523 15.1191 24.6523 13.9883V13.3047ZM24.5478 11.9375L23.4085 5.10156H26.2104L28.489 11.9375H24.5478ZM6.87891 3.05078C6.87891 2.67385 7.18557 2.36719 7.5625 2.36719H29.4375C29.8144 2.36719 30.1211 2.67385 30.1211 3.05078V3.73438C29.4702 3.73438 7.53488 3.73438 6.87891 3.73438V3.05078ZM23.2852 13.3047V13.9883C23.2852 15.1191 22.3652 16.0391 21.2344 16.0391C20.1036 16.0391 19.1836 15.1191 19.1836 13.9883V13.3047H23.2852ZM19.1836 11.9375V5.10156H22.0225L23.1618 11.9375H19.1836ZM13.8382 11.9375L14.9776 5.10156H17.8164V11.9375H13.8382ZM17.8164 13.3047V13.9883C17.8164 15.1191 16.8964 16.0391 15.7656 16.0391C14.6348 16.0391 13.7148 15.1191 13.7148 13.9883V13.3047H17.8164ZM8.51092 11.9375L10.7895 5.10156H13.5915L12.4521 11.9375H8.51092ZM12.3477 13.3047V13.9883C12.3477 15.1191 11.4277 16.0391 10.2969 16.0391C9.16607 16.0391 8.24609 15.1191 8.24609 13.9883V13.3047H12.3477ZM6.59945 5.10156H9.34839L7.06977 11.9375H2.83969L6.59945 5.10156ZM2.36719 13.9883V13.3047H6.87891V13.9883C6.87891 15.0616 5.80368 16.0391 4.62305 16.0391C4.32541 16.0391 4.01697 15.9745 3.72986 15.8516C2.91481 15.505 2.36719 14.7561 2.36719 13.9883ZM15.082 34.6328H8.24609V28.7539H15.082V34.6328ZM15.082 27.3867H8.24609V21.5078H15.082V27.3867ZM32.8555 34.6328H16.4492V20.8242C16.4492 20.4467 16.1431 20.1406 15.7656 20.1406H7.5625C7.18502 20.1406 6.87891 20.4467 6.87891 20.8242V34.6328H4.14453V17.3728C4.30299 17.3944 4.46261 17.4062 4.62305 17.4062C5.52272 17.4062 6.43218 17.0498 7.11803 16.4283C7.26972 16.2909 7.4063 16.1439 7.52887 15.9899C8.15053 16.8472 9.15938 17.4062 10.2969 17.4062C11.4138 17.4062 12.4071 16.8677 13.0312 16.0367C13.6554 16.8677 14.6487 17.4062 15.7656 17.4062C16.8825 17.4062 17.8759 16.8677 18.5 16.0367C19.1241 16.8677 20.1175 17.4062 21.2344 17.4062C22.3513 17.4062 23.3446 16.8677 23.9688 16.0367C24.5929 16.8677 25.5862 17.4062 26.7031 17.4062C27.8406 17.4062 28.8495 16.8472 29.4711 15.9899C29.5937 16.1439 29.7303 16.2908 29.882 16.4283C30.5678 17.0498 31.4773 17.4062 32.377 17.4062C32.5371 17.4062 32.6967 17.3948 32.8555 17.3731V34.6328ZM34.6328 13.9883C34.6328 14.7777 34.0648 15.5352 33.2196 15.8733C32.9431 15.9833 32.6597 16.0391 32.377 16.0391C31.1963 16.0391 30.1211 15.0616 30.1211 13.9883V13.3047H34.6328V13.9883Z" stroke="#3B5CE5" stroke-width="0.1" mask="url(#path-2-outside-1)"/>
</svg>
