<svg width="44" height="56" fill="none" xmlns="http://www.w3.org/2000/svg"><path d="M15.4 0c-1.6.5-3.1 1.2-4.5 2h22.2c-1.4-.8-2.9-1.5-4.5-2H15.4ZM5 7h34c-.6-.7-1.2-1.4-1.9-2H6.9c-.7.6-1.3 1.3-1.9 2ZM3 10c-.4.6-.7 1.3-1 2h40.1c-.3-.7-.6-1.4-1-2H3ZM.8 15c-.2.7-.3 1.3-.5 2h43.3c-.1-.7-.3-1.3-.5-2H.8ZM0 21v1h44v-2H0v1ZM.4 25c.1.7.3 1.3.5 2h42.3c.2-.7.3-1.3.5-2H.4ZM1.9 30c.3.7.6 1.4 1 2H41c.4-.6.7-1.3 1-2H1.9ZM5 35c.6.7 1.2 1.4 1.9 2h30.2c.7-.6 1.3-1.3 1.9-2H5ZM10.9 40c1.4.8 2.9 1.5 4.5 2h13.1c1.6-.5 3.1-1.2 4.5-2H10.9Z" fill="#54ECE6"/><g opacity=".6"><path d="M41 55h-4V40.6c0-1.6-.9-3-2.3-3.6l-12.3-5.7c-.3-.1-.6-.1-.8 0L9.3 37c-1.4.6-2.3 2-2.3 3.6v7.1c0 .9.4 1.7 1 2.4.6.6 1.5 1 2.4 1v4c-2 0-3.8-.8-5.2-2.2C3.8 51.5 3 49.7 3 47.7v-7.1c0-3.1 1.8-6 4.6-7.3l12.3-5.7c1.3-.6 2.9-.6 4.2 0l12.3 5.7c2.8 1.3 4.6 4.2 4.6 7.3V55Z" fill="#0030FB"/><path d="M35.4 51h-25v4h25v-4Z" fill="url(#a)"/><path d="M22 31c-5.5 0-10-4.5-10-10v-5c0-5.5 4.5-10 10-10s10 4.5 10 10v5c0 5.5-4.5 10-10 10Zm0-21c-3.3 0-6 2.7-6 6v5c0 3.3 2.7 6 6 6s6-2.7 6-6v-5c0-3.3-2.7-6-6-6Z" fill="#0030FB"/></g><defs><linearGradient id="a" x1="10.37" y1="52.995" x2="35.396" y2="52.995" gradientUnits="userSpaceOnUse"><stop offset=".4" stop-color="#0030FB"/><stop offset=".95" stop-color="#0030FB" stop-opacity="0"/></linearGradient></defs></svg>