<svg width="27" height="27" viewBox="0 0 27 27" fill="none" xmlns="http://www.w3.org/2000/svg">
<path d="M26.9317 23.1359C26.813 22.5656 26.2546 22.1996 25.6841 22.3183C25.1139 22.437 24.7478 22.9956 24.8666 23.5658C24.935 23.8943 24.8535 24.2309 24.6432 24.4897C24.5214 24.6395 24.2498 24.8908 23.7995 24.8908H3.2006C2.75036 24.8908 2.47872 24.6394 2.3569 24.4897C2.14654 24.231 2.06512 23.8943 2.13352 23.5658C3.22808 18.3084 7.8653 14.468 13.2205 14.3385C13.3132 14.342 13.4064 14.3438 13.5001 14.3438C13.594 14.3438 13.6876 14.342 13.7807 14.3384C17.5529 14.4289 21.0395 16.3395 23.151 19.4885C23.4753 19.9723 24.1305 20.1015 24.6144 19.7771C25.0981 19.4528 25.2274 18.7976 24.903 18.3138C23.1724 15.7328 20.6594 13.8559 17.7941 12.9129C19.5402 11.6035 20.672 9.5174 20.672 7.17192C20.672 3.21734 17.4547 0 13.5001 0C9.54543 0 6.32814 3.21734 6.32814 7.17192C6.32814 9.51882 7.4613 11.6061 9.20919 12.9153C7.60775 13.4425 6.10507 14.2629 4.78987 15.3447C2.37821 17.3285 0.701403 20.0954 0.0684293 23.1359C-0.129959 24.0886 0.107717 25.0672 0.720388 25.8205C1.33005 26.5702 2.23408 27.0002 3.2006 27.0002H23.7994C24.766 27.0002 25.6701 26.5702 26.2797 25.8205C26.8924 25.0672 27.1301 24.0886 26.9317 23.1359ZM8.43753 7.17192C8.43753 4.38041 10.7085 2.10939 13.5001 2.10939C16.2916 2.10939 18.5626 4.38041 18.5626 7.17192C18.5626 9.87747 16.4292 12.0941 13.7563 12.228C13.671 12.2264 13.5856 12.2256 13.5001 12.2256C13.4149 12.2256 13.3298 12.2265 13.2448 12.2281C10.5714 12.0947 8.43753 9.87784 8.43753 7.17192Z" fill="#3B5CE5"/>
</svg>
