<svg width="30" height="30" viewBox="0 0 30 30" fill="none" xmlns="http://www.w3.org/2000/svg">
<path d="M20.9591 15.0276C20.4078 14.7655 19.8453 14.5397 19.2729 14.3506C21.1266 12.9592 22.328 10.7437 22.328 8.25273C22.328 4.05086 18.9095 0.632324 14.7076 0.632324C10.5056 0.632324 7.08715 4.05086 7.08715 8.25273C7.08715 10.7464 8.29117 12.9642 10.1484 14.3553C8.44677 14.9155 6.85013 15.7872 5.45268 16.9366C2.89021 19.0444 1.10855 21.9844 0.43599 25.215C0.225196 26.2273 0.477734 27.267 1.12872 28.0675C1.77651 28.8641 2.73707 29.3209 3.76403 29.3209H17.5652C18.1841 29.3209 18.6859 28.8192 18.6859 28.2003C18.6859 27.5813 18.1841 27.0796 17.5652 27.0796H3.76403C3.28563 27.0796 2.99701 26.8126 2.86757 26.6534C2.64406 26.3786 2.55754 26.0208 2.63022 25.6718C3.79317 20.0857 8.72044 16.005 14.4105 15.8674C14.509 15.8712 14.608 15.8731 14.7076 15.8731C14.808 15.8731 14.908 15.8712 15.0076 15.8673C16.7513 15.9082 18.4283 16.3062 19.9969 17.0518C20.5559 17.3174 21.2244 17.0798 21.4901 16.5208C21.7558 15.9618 21.5181 15.2933 20.9591 15.0276ZM14.9809 13.6249C14.8899 13.6233 14.7988 13.6225 14.7076 13.6225C14.6171 13.6225 14.5267 13.6234 14.4364 13.6251C11.5958 13.4834 9.32844 11.1279 9.32844 8.25273C9.32844 5.28666 11.7415 2.87362 14.7076 2.87362C17.6736 2.87362 20.0867 5.28666 20.0867 8.25273C20.0867 11.1271 17.8204 13.4822 14.9809 13.6249Z" fill="#3F63F7"/>
<path d="M27.9298 22.6414H24.848V19.5596C24.848 18.9407 24.3463 18.439 23.7274 18.439C23.1084 18.439 22.6067 18.9407 22.6067 19.5596V22.6414H19.5249C18.906 22.6414 18.4043 23.1431 18.4043 23.762C18.4043 24.381 18.906 24.8827 19.5249 24.8827H22.6067V27.9645C22.6067 28.5834 23.1084 29.0851 23.7274 29.0851C24.3463 29.0851 24.848 28.5834 24.848 27.9645V24.8827H27.9298C28.5487 24.8827 29.0505 24.381 29.0505 23.762C29.0505 23.1431 28.5487 22.6414 27.9298 22.6414Z" fill="#3F63F7"/>
</svg>
